<?xml version="1.0" encoding="UTF-8"?>
<svg width="58px" height="53px" viewBox="0 0 58 53" version="1.1" xmlns="http://www.w3.org/2000/svg" xmlns:xlink="http://www.w3.org/1999/xlink">
    <!-- Generator: Sketch 62 (91390) - https://sketch.com -->
    <title>noun_dark mode_2084644</title>
    <desc>Created with Sketch.</desc>
    <g id="Page-1" stroke="none" stroke-width="1">
        <g id="noun_dark-mode_2084644" fill-rule="nonzero">
            <path d="M0,43 C0,43.5522847 0.44771525,44 1,44 L57,44 C57.5522847,44 58,43.5522847 58,43 L58,33 L0,33 L0,43 Z M29,36 C30.1045695,36 31,36.8954305 31,38 C31,39.1045695 30.1045695,40 29,40 C27.8954305,40 27,39.1045695 27,38 C27,36.8954305 27.8954305,36 29,36 Z" id="Shape"></path>
            <path d="M57,0 L1,0 C0.44771525,0 0,0.44771525 0,1 L0,31 L58,31 L58,1 C58,0.44771525 57.5522847,0 57,0 Z M7,27 L5,27 L5,25 L7,25 L7,27 Z M7,23 L5,23 L5,21 L7,21 L7,23 Z M7,19 L5,19 L5,17 L7,17 L7,19 Z M7,15 L5,15 L5,13 L7,13 L7,15 Z M7,11 L5,11 L5,9 L7,9 L7,11 Z M7,7 L5,7 L5,5 L7,5 L7,7 Z M11,11 L9,11 L9,9 L11,9 L11,11 Z M11,7 L9,7 L9,5 L11,5 L11,7 Z M15,7 L13,7 L13,5 L15,5 L15,7 Z M19,7 L17,7 L17,5 L19,5 L19,7 Z M29,26.7500051 C23.6152237,26.7500051 19.2500001,22.3847763 19.2500001,17 C19.2500001,11.6152237 23.6152237,7.25000008 29,7.25 C29.4508611,7.22793798 29.8606053,7.51066151 30,7.94 C30.1398116,8.34759455 30.002804,8.79891373 29.66,9.06 C28.3204231,10.0398583 27.5290537,11.6003049 27.53,13.26 C27.5355028,16.1572125 29.8827875,18.5044972 32.78,18.51 C34.4396951,18.5109463 36.0001417,17.7195769 36.98,16.38 C37.2382582,16.0356557 37.6878856,15.8952027 38.0962278,16.0313167 C38.5045699,16.1674307 38.78,16.5495696 38.78,16.98 C38.78,19.5728986 37.7492924,22.059453 35.9148986,23.8919712 C34.0805048,25.7244893 31.5928973,26.7526539 29,26.7500051 Z M49,24 L47,24 L47,22 L49,22 L49,24 Z M53,24 L51,24 L51,22 L53,22 L53,24 Z M53,20 L51,20 L51,18 L53,18 L53,20 Z M53,16 L51,16 L51,14 L53,14 L53,16 Z M53,12 L51,12 L51,10 L53,10 L53,12 Z M53,8 L51,8 L51,6 L53,6 L53,8 Z" id="Shape"></path>
            <polygon id="Path" points="23 46 23 51 15.5 51 15.5 53 24 53 34 53 42.5 53 42.5 51 35 51 35 46"></polygon>
        </g>
    </g>
</svg>