<?xml version="1.0" encoding="UTF-8"?>
<svg width="545px" height="168px" viewBox="0 0 545 168" version="1.1" xmlns="http://www.w3.org/2000/svg" xmlns:xlink="http://www.w3.org/1999/xlink">
    <g id="Page-1" stroke="none" stroke-width="1">
        <path d="M77.98,167.235 C103.78,167.235 117.755,140.575 117.755,122.945 C117.755,113.915 114.1,104.24 106.145,96.285 C97.545,87.685 85.29,88.33 85.29,82.525 C85.29,78.01 94.965,78.225 101.63,71.56 C108.725,64.465 112.595,53.715 112.595,42.965 C112.595,27.915 105.285,11.36 85.075,11.36 C64.65,11.36 53.04,23.185 41.215,23.185 C25.52,23.185 21.865,17.165 12.835,17.165 C6.6,17.165 1.87,21.68 1.87,27.485 C1.87,32.645 4.45,37.375 5.525,39.095 C8.75,44.685 8.75,56.295 8.75,77.15 C8.75,114.775 7.03,130.04 5.525,136.06 C4.02,141.435 0.795,147.67 0.795,153.475 C0.795,158.635 4.235,165.515 12.62,165.515 C30.25,165.515 31.325,154.765 41.86,154.765 C52.825,154.765 62.5,167.235 77.98,167.235 Z M49.17,78.44 C40.57,78.44 37.13,69.195 37.13,62.1 C37.13,49.415 44.225,43.61 51.965,43.61 C60.995,43.61 65.51,50.92 65.51,58.66 C65.51,68.765 59.49,78.44 49.17,78.44 Z M50.46,130.04 C41.86,130.04 38.42,122.3 38.42,114.99 C38.42,105.1 42.935,94.78 50.245,94.78 C59.49,94.78 64.22,108.11 64.22,113.7 C64.22,124.88 56.91,130.04 50.46,130.04 Z M164.41,83.17 C194.295,83.17 207.41,60.595 207.41,43.61 C207.41,19.53 191.5,5.77 168.495,5.77 C137.105,5.77 122.27,18.455 122.27,47.05 C122.27,64.895 132.16,83.17 164.41,83.17 Z M172.15,67.045 C164.84,67.045 161.615,61.025 161.615,54.79 C161.615,48.125 165.27,41.46 173.655,41.46 C182.47,41.46 186.77,47.91 186.77,54.36 C186.77,60.81 182.04,67.045 172.15,67.045 Z M252.99,83.17 C282.875,83.17 295.99,60.595 295.99,43.61 C295.99,19.53 280.08,5.77 257.075,5.77 C225.685,5.77 210.85,18.455 210.85,47.05 C210.85,64.895 220.74,83.17 252.99,83.17 Z M260.73,67.045 C253.42,67.045 250.195,61.025 250.195,54.79 C250.195,48.125 253.85,41.46 262.235,41.46 C271.05,41.46 275.35,47.91 275.35,54.36 C275.35,60.81 270.62,67.045 260.73,67.045 Z M325.015,164.44 C349.525,164.44 357.48,151.755 357.48,141.005 C357.48,131.33 352.965,121.225 352.965,112.84 C352.965,106.39 356.405,100.155 364.575,100.155 C369.735,100.155 372.315,103.81 372.315,108.97 C372.315,116.71 367.155,127.675 367.155,137.995 C367.155,151.11 378.765,160.355 390.805,160.355 C413.38,160.355 434.665,121.225 434.665,100.585 C434.665,90.05 429.075,85.75 418.54,85.75 C405.855,85.75 389.73,90.91 380.485,90.91 C375.54,90.91 373.39,88.975 373.39,85.105 C373.39,78.01 378.335,75 383.28,75 C389.3,75 398.545,78.655 411.445,78.655 C427.355,78.655 437.89,58.015 437.89,33.29 C437.89,16.52 431.655,0.395 413.38,0.395 C377.905,0.395 397.685,41.03 373.175,64.035 C369.95,67.045 365.65,69.195 361.565,69.195 C356.405,69.195 354.255,63.605 354.255,60.595 C354.255,47.48 378.98,31.785 378.98,17.38 C378.98,7.92 368.015,1.685 357.695,1.685 C336.195,1.685 326.52,18.885 326.52,31.785 C326.52,39.955 328.67,48.985 328.67,57.585 C328.67,78.01 323.51,95.425 313.62,110.045 C306.74,119.72 299.43,132.405 299.43,142.725 C299.43,157.13 311.9,164.44 325.015,164.44 Z M491.425,158.635 C517.655,158.635 544.1,143.8 544.1,102.305 C544.1,56.725 494.865,61.455 494.865,41.03 C494.865,35.225 500.455,31.785 505.615,31.785 C528.19,31.785 523.675,47.695 533.565,47.695 C537.865,47.695 541.09,43.825 541.09,38.665 C541.09,19.315 520.235,11.145 496.8,11.145 C468.635,11.145 452.94,28.775 452.94,49.845 C452.94,93.275 488.2,81.235 488.2,104.885 C488.2,111.98 483.04,116.28 476.375,116.28 C458.1,116.28 459.82,103.81 453.155,103.81 C446.275,103.81 442.405,113.055 442.405,120.365 C442.405,141.865 460.25,158.635 491.425,158.635 Z" ></path>
    </g>
</svg>